<svg width="32" height="32" viewBox="0 0 32 32" fill="none" xmlns="http://www.w3.org/2000/svg">
<g clip-path="url(#clip0_741_440)">
<path d="M6.53061 32H25.4694C29.0776 32 32 29.0776 32 25.4694V6.53061C32 2.92245 29.0776 0 25.4694 0H6.53061C2.92245 0 0 2.92245 0 6.53061V25.4694C0 29.0776 2.92245 32 6.53061 32Z" fill="white"/>
<path d="M22.5304 9.79591L26.4487 7.83673V10.7755L15.9998 16L26.4487 21.2245V24.1633L22.5304 22.2041C22.5304 23.2849 21.652 24.1633 20.5712 24.1633H7.50997C6.42915 24.1633 5.55078 23.2849 5.55078 22.2041V18.2857L10.1222 16L5.55078 13.7143V9.79591C5.55078 8.7151 6.42915 7.83673 7.50997 7.83673H20.5712C21.652 7.83673 22.5304 8.7151 22.5304 9.79591ZM13.061 17.4694L5.55078 21.2245H20.5712L13.061 17.4694ZM5.55078 10.7755L13.061 14.5306L20.5712 10.7755H5.55078Z" fill="black"/>
</g>
<defs>
<clipPath id="clip0_741_440">
<rect width="32" height="32" fill="white"/>
</clipPath>
</defs>
</svg>
