<svg width="42" height="42" viewBox="0 0 42 42" fill="none" xmlns="http://www.w3.org/2000/svg">
<path d="M21 4.375C16.5908 4.375 12.3621 6.12656 9.24435 9.24435C6.12656 12.3621 4.375 16.5908 4.375 21C4.375 25.4092 6.12656 29.6379 9.24435 32.7556C12.3621 35.8734 16.5908 37.625 21 37.625C25.4092 37.625 29.6379 35.8734 32.7556 32.7556C35.8734 29.6379 37.625 25.4092 37.625 21C37.625 16.5908 35.8734 12.3621 32.7556 9.24435C29.6379 6.12656 25.4092 4.375 21 4.375Z" fill="#37474F"/>
<path d="M21.9312 22.0211L24.039 27.5607C24.5168 28.2091 25.0847 28.7761 25.7619 29.1602C27.8785 30.3616 30.5744 29.6686 31.7828 27.6124C31.7828 27.6124 22.1727 22.2057 21.9312 22.0211Z" fill="#FF7043"/>
<path d="M21.9312 22.0211C22.2138 22.134 31.7828 27.6115 31.7828 27.6115C32.9903 25.5543 32.2535 22.9136 30.136 21.7122C29.4588 21.3281 28.6757 21.1286 27.8654 21.0455L21.9312 22.0211Z" fill="#F16461"/>
<path d="M29.3055 23.2269C29.0509 23.0825 28.7761 22.9591 28.4926 22.8463C28.5836 23.7151 28.4182 24.6173 27.9396 25.4319C27.461 26.2465 26.7496 26.838 25.9385 27.195C26.18 27.3796 26.4259 27.552 26.6805 27.6964C29.3326 29.2014 31.0564 28.8461 31.7817 27.6124C32.5071 26.3778 31.9576 24.7319 29.3055 23.2269Z" fill="#FF5252"/>
<path d="M24.2061 25.4922C24.7214 26.1135 25.3051 26.7102 25.9394 27.1941C26.7506 26.8371 27.4628 26.2456 27.9406 25.431C28.4192 24.6164 28.5846 23.7142 28.4936 22.8454C27.7498 22.5479 26.9317 22.3492 26.1276 22.2215C26.1661 22.8699 26.0226 23.5366 25.6682 24.1412C25.3121 24.7459 24.7967 25.2017 24.2061 25.4922Z" fill="#FF855F"/>
<path d="M25.9393 27.195C25.3049 26.7111 24.7213 26.1135 24.2059 25.4931C23.8375 25.6742 23.4394 25.7836 23.0308 25.8291C23.3081 26.4267 23.6415 27.0217 24.0396 27.5616C24.695 27.5765 25.3434 27.4566 25.9393 27.195Z" fill="#FF8A65"/>
<path d="M26.1268 22.2224C26.9318 22.351 27.7499 22.5488 28.4928 22.8463C28.4263 22.2075 28.2076 21.5968 27.8655 21.0455C27.1908 20.9764 26.5004 20.9913 25.8354 21.0534C25.9991 21.4244 26.1032 21.8181 26.1268 22.2224Z" fill="#FF8A80"/>
<path d="M25.6674 24.1413C26.0227 23.5366 26.1662 22.8708 26.1268 22.2215C23.9638 21.8768 21.9312 22.0211 21.9312 22.0211C21.9312 22.0211 22.8202 23.8236 24.2062 25.4923C24.7968 25.2018 25.3122 24.7459 25.6674 24.1413Z" fill="#FFCCBC"/>
<path d="M24.2058 25.4922C22.8198 23.8236 21.9308 22.0211 21.9308 22.0211C21.8801 22.1069 21.8617 22.211 21.8836 22.3169C22.0175 22.9661 22.3648 24.3985 23.0298 25.8291C23.4385 25.7827 23.8375 25.6742 24.2058 25.4922Z" fill="#FFAB91"/>
<path d="M25.835 21.0533C24.2416 21.2021 22.8066 21.623 22.1679 21.8338C22.0638 21.868 21.9815 21.9362 21.9316 22.022C21.9316 22.022 23.9643 21.8776 26.1273 22.2223C26.1028 21.8181 25.9986 21.4243 25.835 21.0533Z" fill="#FFCDD2"/>
<path d="M20.0563 22.0211C19.8148 22.2057 10.2056 27.6115 10.2056 27.6115C11.4139 29.6677 14.1089 30.3607 16.2264 29.1594C16.9037 28.7752 17.4716 28.2082 17.9493 27.5599L20.0563 22.0211Z" fill="#C6CF47"/>
<path d="M20.0565 22.0211L14.1223 21.0455C13.312 21.1277 12.528 21.3281 11.8517 21.7122C9.73503 22.9136 8.9974 25.5543 10.2049 27.6115C10.2049 27.6115 19.7739 22.1348 20.0565 22.0211Z" fill="#E1EB8A"/>
<path d="M15.3072 27.6964C15.5618 27.552 15.8077 27.3788 16.0492 27.195C15.238 26.838 14.5258 26.2465 14.048 25.4319C13.5694 24.6173 13.404 23.7151 13.495 22.8463C13.2124 22.9591 12.9368 23.0825 12.6822 23.2269C10.03 24.7319 9.48142 26.3769 10.2059 27.6115C10.9313 28.8461 12.655 29.2014 15.3072 27.6964Z" fill="#DCE775"/>
<path d="M15.8611 22.2224C15.0561 22.351 14.238 22.5487 13.4951 22.8462C13.4041 23.7151 13.5695 24.6172 14.0481 25.4319C14.5267 26.2465 15.2381 26.838 16.0492 27.195C16.6836 26.7111 17.2672 26.1135 17.7826 25.4931C17.192 25.2017 16.6766 24.7467 16.3214 24.1421C15.9661 23.5366 15.8226 22.8707 15.8611 22.2224Z" fill="#FFF59D"/>
<path d="M13.4951 22.8462C14.2389 22.5487 15.057 22.3501 15.8611 22.2224C15.8856 21.8181 15.9889 21.4244 16.1525 21.0534C15.4875 20.9912 14.7962 20.9772 14.1225 21.0455C13.7804 21.5967 13.5616 22.2084 13.4951 22.8462Z" fill="#E6EE9C"/>
<path d="M17.7822 25.4922C17.2668 26.1135 16.6832 26.7102 16.0488 27.1941C16.6447 27.4566 17.2931 27.5765 17.9493 27.5607C18.3475 27.0209 18.68 26.4259 18.9582 25.8282C18.5487 25.7827 18.1506 25.6742 17.7822 25.4922Z" fill="#FFD740"/>
<path d="M16.3212 24.1412C16.6764 24.7458 17.1918 25.2008 17.7824 25.4922C19.1684 23.8236 20.0574 22.0211 20.0574 22.0211C20.0574 22.0211 18.0248 21.8767 15.8618 22.2215C15.8224 22.8707 15.9659 23.5366 16.3212 24.1412Z" fill="#FFF9C4"/>
<path d="M15.8608 22.2223C18.0238 21.8776 20.0565 22.022 20.0565 22.022C20.0057 21.9362 19.9243 21.868 19.8202 21.8338C19.1806 21.623 17.7456 21.203 16.1531 21.0533C15.9886 21.4243 15.8853 21.8181 15.8608 22.2223Z" fill="#F0F4C3"/>
<path d="M18.9577 25.8282C19.6227 24.3976 19.9701 22.9661 20.104 22.316C20.1259 22.2101 20.1075 22.106 20.0567 22.0202C20.0567 22.0202 19.1677 23.8227 17.7817 25.4913C18.151 25.6742 18.5491 25.7827 18.9577 25.8282Z" fill="#FFE082"/>
<path d="M36.1987 25.0723C35.839 26.4171 35.3105 27.6911 34.6289 28.8689L36.1435 29.743C36.9013 28.434 37.4875 27.02 37.8874 25.5246L36.1987 25.0723Z" fill="#F44336"/>
<path d="M9.86323 32.137L8.62598 33.3743C9.7031 34.4514 10.9299 35.3754 12.2572 36.1436L13.1314 34.629C11.937 33.9378 10.8327 33.1065 9.86323 32.137Z" fill="#FFD740"/>
<path d="M5.25 21H3.5C3.5 22.568 3.72575 24.0791 4.1125 25.5255L5.80125 25.0731C5.453 23.7711 5.25 22.4105 5.25 21Z" fill="#AED581"/>
<path d="M7.37107 28.8689L5.85645 29.743C6.6247 31.0704 7.5487 32.2963 8.62582 33.3743L9.86307 32.137C8.89357 31.1675 8.06232 30.0633 7.37107 28.8689Z" fill="#FFF176"/>
<path d="M5.80105 25.0723L4.1123 25.5255C4.51218 27.02 5.0993 28.4349 5.85618 29.7439L7.3708 28.8698C6.68918 27.6911 6.16068 26.418 5.80105 25.0723Z" fill="#DCE775"/>
<path d="M13.131 34.629L12.2568 36.1437C13.5658 36.9005 14.9798 37.4877 16.4752 37.8875L16.9276 36.1988C15.5818 35.8392 14.3087 35.3107 13.131 34.629Z" fill="#FFCA28"/>
<path d="M28.8687 34.629L29.7428 36.1436C31.0702 35.3754 32.2969 34.4514 33.374 33.3743L32.1368 32.137C31.1673 33.1065 30.063 33.9378 28.8687 34.629Z" fill="#FF7043"/>
<path d="M25.0723 36.1988L25.5246 37.8875C27.0191 37.4877 28.434 36.9005 29.743 36.1437L28.8689 34.629C27.6911 35.3107 26.418 35.8392 25.0723 36.1988Z" fill="#FB8C00"/>
<path d="M32.1372 32.137L33.3745 33.3743C34.4516 32.2971 35.3756 31.0704 36.1438 29.743L34.6292 28.8689C33.938 30.0633 33.1067 31.1675 32.1372 32.137Z" fill="#FF5252"/>
<path d="M16.928 36.1987L16.4756 37.8875C17.9211 38.2742 19.4322 38.5 21.0002 38.5V36.75C19.5897 36.75 18.2291 36.547 16.928 36.1987Z" fill="#FFB74D"/>
<path d="M21 36.75V38.5C22.568 38.5 24.0791 38.2742 25.5255 37.8875L25.0731 36.1987C23.7711 36.547 22.4105 36.75 21 36.75Z" fill="#FFA726"/>
<path d="M16.928 5.8013L16.4747 4.11255C14.9802 4.51242 13.5653 5.09955 12.2563 5.85642L13.1305 7.37105C14.3091 6.68942 15.5822 6.16092 16.928 5.8013Z" fill="#64B5F6"/>
<path d="M36.1987 16.9278L37.8874 16.4754C37.4875 14.9809 36.9004 13.566 36.1435 12.257L34.6289 13.1311C35.3105 14.3089 35.839 15.582 36.1987 16.9278Z" fill="#9575CD"/>
<path d="M34.6292 13.1311L36.1438 12.257C35.3756 10.9296 34.4516 9.70286 33.3745 8.62573L32.1372 9.86298C33.1067 10.8325 33.938 11.9367 34.6292 13.1311Z" fill="#7986CB"/>
<path d="M32.1368 9.86295L33.374 8.6257C32.2969 7.54857 31.0702 6.62457 29.7428 5.85632L28.8687 7.37095C30.063 8.0622 31.1673 8.89345 32.1368 9.86295Z" fill="#8C9EFF"/>
<path d="M28.869 7.37105L29.7431 5.85642C28.435 5.09867 27.0201 4.51155 25.5256 4.11255L25.0732 5.8013C26.4181 6.16092 27.6912 6.68942 28.869 7.37105Z" fill="#82B1FF"/>
<path d="M36.75 21H38.5C38.5 19.432 38.2742 17.9209 37.8875 16.4745L36.1987 16.9269C36.547 18.2289 36.75 19.5895 36.75 21Z" fill="#F06292"/>
<path d="M5.80125 16.9277L4.1125 16.4745C3.72575 17.9209 3.5 19.432 3.5 21H5.25C5.25 19.5895 5.453 18.2289 5.80125 16.9277Z" fill="#9CCC65"/>
<path d="M36.1987 25.0722L37.8875 25.5246C38.2742 24.0791 38.5 22.568 38.5 21H36.75C36.75 22.4105 36.547 23.7711 36.1987 25.0722Z" fill="#EF5350"/>
<path d="M25.0722 5.80125L25.5246 4.1125C24.0791 3.72575 22.568 3.5 21 3.5V5.25C22.4105 5.25 23.7711 5.453 25.0722 5.80125Z" fill="#64B5F6"/>
<path d="M9.86307 9.86298L8.62582 8.62573C7.5487 9.70286 6.6247 10.9296 5.85645 12.257L7.37107 13.1311C8.06232 11.9367 8.89357 10.8325 9.86307 9.86298Z" fill="#68C1B8"/>
<path d="M7.3708 13.1311L5.85618 12.257C5.09843 13.5651 4.5113 14.98 4.1123 16.4745L5.80105 16.9269C6.16068 15.582 6.68918 14.3089 7.3708 13.1311Z" fill="#81C784"/>
<path d="M13.1314 7.37095L12.2572 5.85632C10.9299 6.62457 9.7031 7.54857 8.62598 8.6257L9.86323 9.86295C10.8327 8.89345 11.937 8.0622 13.1314 7.37095Z" fill="#4DB6AC"/>
<path d="M21.0001 5.25V3.5C19.4321 3.5 17.921 3.72575 16.4746 4.1125L16.927 5.80125C18.229 5.453 19.5896 5.25 21.0001 5.25Z" fill="#4BA9F5"/>
<path d="M21.0009 9.625L21 21C21.1006 21 21.2012 20.9632 21.2835 20.8906C22.2539 20.034 25.375 17.0424 25.375 14.0516C25.375 11.6069 23.4167 9.62587 21.0009 9.625Z" fill="#7986CB"/>
<path d="M21 9.625C20.9991 9.625 20.9991 9.625 21 9.625C18.5841 9.625 16.625 11.6069 16.625 14.0516C16.625 17.0424 19.7461 20.034 20.7165 20.8906C20.7987 20.9632 20.8994 21 21 21V9.625Z" fill="#26A69A"/>
<path d="M21 9.625C19.5493 9.625 18.375 10.9375 18.375 14C18.375 17.1412 21 21 21 21C21 21 23.625 17.1412 23.625 14C23.625 10.9375 22.4499 9.625 21 9.625Z" fill="#82B1FF"/>
<path d="M21 9.625C21.4751 9.625 21.8234 9.7055 21.8724 9.71687C23.3826 10.0607 24.5 11.263 24.5 12.6875C24.5 13.4837 24.1413 14.21 23.5725 14.7525C23.5813 14.6912 21.2459 9.65125 21 9.625Z" fill="#4DB6AC"/>
<path d="M22.5927 18.0775C21.8577 19.74 21.0002 21 21.0002 21C21.0002 21 20.1427 19.74 19.4077 18.0775C19.9065 18.27 20.4402 18.375 21.0002 18.375C21.5602 18.375 22.094 18.27 22.5927 18.0775Z" fill="#90CAF9"/>
<path d="M18.4275 14.7525C17.85 14.2187 17.5 13.4837 17.5 12.6875C17.5 11.2087 18.6988 9.975 20.2912 9.68625C20.4313 9.66 20.8521 9.625 21 9.625C19.6787 9.7825 18.3925 14.4987 18.4275 14.7525Z" fill="#8DD0CA"/>
<path d="M23.625 14C23.625 14.1225 23.625 14.2538 23.6075 14.3763C23.6075 14.4988 23.59 14.63 23.5725 14.7525C22.9338 15.365 22.015 15.75 21 15.75C19.985 15.75 19.0662 15.365 18.4275 14.7525C18.3925 14.4988 18.375 14.245 18.375 14C18.375 11.13 19.4075 9.8 20.7288 9.6425C20.8163 9.625 20.9125 9.625 21 9.625C21.0875 9.625 21.1837 9.625 21.2712 9.6425C21.5162 9.66875 21.7613 9.73875 21.98 9.86125C22.05 9.89625 22.12 9.94 22.19 9.98375C22.26 10.0275 22.33 10.08 22.4 10.15C22.4613 10.2025 22.5225 10.255 22.575 10.3163C22.7762 10.5263 22.96 10.7887 23.1 11.1125C23.1437 11.2087 23.1875 11.305 23.2225 11.4012C23.2663 11.5062 23.3012 11.6112 23.3363 11.725C23.3713 11.8212 23.3975 11.9263 23.415 12.0313C23.45 12.1713 23.485 12.3112 23.5025 12.46C23.5375 12.6263 23.5638 12.81 23.5813 12.9938C23.6075 13.3 23.625 13.6413 23.625 14Z" fill="#80CBC4"/>
<path d="M25.3575 14.3937C25.1388 17.2725 22.2162 20.0725 21.28 20.895C21.2012 20.965 21.105 21 21 21C21 21 21.8575 19.74 22.5925 18.0775C24.0975 17.4825 25.2 16.0737 25.3575 14.3937Z" fill="#9FA8DA"/>
<path d="M21.0001 21C20.8951 21 20.7988 20.965 20.7201 20.895C19.7838 20.0725 16.8613 17.2725 16.6426 14.3937C16.8001 16.0737 17.9026 17.4825 19.4076 18.0775C20.1426 19.74 21.0001 21 21.0001 21Z" fill="#81C784"/>
</svg>
