<svg width="48" height="48" viewBox="0 0 48 48" fill="none" xmlns="http://www.w3.org/2000/svg">
<path d="M12.2971 11.4286H27.5817C27.5817 11.4286 31.8788 15.3897 31.8788 20.8343L24.7154 25.7829C24.7154 25.7829 20.896 16.8732 12.2971 11.4286Z" fill="#00DAB8"/>
<path d="M40.0001 19.8445C40.0001 19.8445 34.7452 17.8628 31.4035 19.3485C28.0595 20.8343 26.6264 22.8137 25.1932 24.2994C23.2847 26.2788 19.9407 29.744 17.0744 27.7645C14.2081 25.7828 28.5372 34.6948 28.5372 34.6948C28.5372 34.6948 34.5121 31.3371 36.6561 25.7828C38.5669 20.8343 40.0001 19.8445 40.0001 19.8445Z" fill="#0C3AA0"/>
<path d="M8 18.8549V33.7029C8 33.7029 13.264 40.1783 25.6709 36.6743C30.9257 35.1886 35.2251 28.2583 35.2251 28.2583C35.2251 28.2583 29.0126 38.6537 8 18.8571V18.8549Z" fill="#296DFF"/>
</svg>
