<svg width="32" height="34" viewBox="0 0 32 34" fill="none" xmlns="http://www.w3.org/2000/svg">
<path fill-rule="evenodd" clip-rule="evenodd" d="M5.51834 5.8486C6.55582 6.69154 6.94487 6.62754 8.8935 6.49702L27.2615 5.39386C27.6514 5.39386 27.3272 5.00565 27.1975 4.94081L24.1474 2.73533C23.563 2.28144 22.784 1.76186 21.2918 1.89154L3.50655 3.18839C2.85813 3.25239 2.72845 3.5766 2.98697 3.83681L5.51834 5.8486Z" fill="white"/>
<path fill-rule="evenodd" clip-rule="evenodd" d="M6.62109 10.1289V29.4552C6.62109 30.4936 7.13983 30.8826 8.30867 30.8186L28.4948 29.6506C29.6636 29.5866 29.7941 28.8717 29.7941 28.0279V8.83124C29.7941 7.98914 29.4699 7.5344 28.755 7.59924L7.66025 8.83124C6.8813 8.89608 6.62109 9.28598 6.62109 10.1289Z" fill="white"/>
<path fill-rule="evenodd" clip-rule="evenodd" d="M5.51832 5.84853C6.55579 6.69148 6.94484 6.62748 8.89347 6.49695L27.2615 5.39379C27.6514 5.39379 27.3272 5.00558 27.1975 4.94074L24.1474 2.73527C23.5629 2.28137 22.784 1.76179 21.2918 1.89148L3.50653 3.18832C2.8581 3.25232 2.72842 3.57653 2.98695 3.83674L5.51832 5.84853ZM6.62063 10.129V29.4553C6.62063 30.4936 7.13937 30.8826 8.30821 30.8186L28.4943 29.6506C29.6632 29.5866 29.7937 28.8717 29.7937 28.0279V8.83127C29.7937 7.98916 29.4695 7.53443 28.7545 7.59927L7.65979 8.83127C6.88084 8.89611 6.62063 9.286 6.62063 10.129ZM26.5482 11.1656C26.6779 11.75 26.5482 12.3336 25.9629 12.3993L24.9903 12.593V26.8607C24.1457 27.3146 23.3667 27.574 22.7183 27.574C21.6792 27.574 21.4189 27.2498 20.6408 26.2772L14.2787 16.2898V25.9529L16.2922 26.4068C16.2922 26.4068 16.2922 27.574 14.6678 27.574L10.1903 27.8334C10.0606 27.574 10.1903 26.9256 10.6442 26.7959L11.8131 26.4717V13.6961L10.1903 13.5664C10.0598 12.982 10.384 12.1399 11.2935 12.0742L16.0968 11.75L22.7175 21.8679V12.9172L21.0291 12.7235C20.8994 12.0094 21.4181 11.4906 22.0674 11.4266L26.5482 11.1656ZM2.01179 1.43842L20.5112 0.0758982C22.7832 -0.118628 23.3676 0.0118983 24.7949 1.04853L30.7006 5.19927C31.6749 5.91337 32 6.1079 32 6.88516V29.649C32 31.0755 31.4804 31.9193 29.6632 32.0481L8.17937 33.3458C6.81516 33.4106 6.16589 33.2161 5.45179 32.3083L1.10316 26.6662C0.32421 25.6279 0 24.8506 0 23.942V3.70706C0 2.54074 0.519579 1.56727 2.01179 1.43842Z" fill="#424242"/>
</svg>
