<svg width="40" height="40" viewBox="0 0 40 40" fill="none" xmlns="http://www.w3.org/2000/svg">
<g clip-path="url(#clip0_741_282)">
<path d="M0 4C0 1.791 1.791 0 4 0H32C34.209 0 36 1.791 36 4V32C36 34.209 34.209 36 32 36H4C1.791 36 0 34.209 0 32V4Z" fill="#03A9F4"/>
<path d="M14.169 13H12V18H14.1376C14.7302 18 15.1885 17.7982 15.5135 17.3945C15.8386 16.9908 16 16.4032 16 15.6319C16 14.8313 15.8342 14.1953 15.5027 13.7217C15.1712 13.2481 14.7259 13.0079 14.169 13Z" fill="#020F16"/>
<path d="M3 3V33H33V3H3ZM17.365 18.789C16.539 19.597 15.393 20 13.928 20H12.014V25H9.143V10.781H13.987C15.393 10.781 16.515 11.218 17.351 12.09C18.187 12.962 18.606 14.095 18.606 15.488C18.606 16.881 18.192 17.981 17.365 18.789ZM26.682 24.336C25.973 24.909 25.041 25.195 23.889 25.195C23.114 25.195 22.43 25.044 21.838 24.741C21.246 24.438 20.781 24.016 20.446 23.476C20.111 22.936 19.943 22.353 19.943 21.728H22.57C22.584 22.209 22.695 22.571 22.907 22.812C23.119 23.053 23.465 23.173 23.947 23.173C24.689 23.173 25.06 22.838 25.06 22.167C25.06 21.933 24.948 21.716 24.723 21.518C24.498 21.32 24 21.052 23.225 20.713C22.086 20.251 21.303 19.773 20.876 19.277C20.449 18.781 20.236 18.167 20.236 17.431C20.236 16.506 20.57 15.743 21.237 15.141C21.904 14.539 22.789 14.238 23.888 14.238C25.046 14.238 25.974 14.538 26.671 15.136C27.368 15.734 27.716 16.539 27.716 17.548H24.952C24.952 16.689 24.595 16.259 23.878 16.259C23.585 16.259 23.345 16.35 23.155 16.532C22.965 16.714 22.872 16.969 22.872 17.294C22.872 17.528 22.976 17.735 23.185 17.914C23.394 18.093 23.884 18.349 24.66 18.681C25.787 19.098 26.582 19.562 27.048 20.073C27.514 20.584 27.746 21.247 27.746 22.06C27.746 23.005 27.391 23.763 26.682 24.336Z" fill="#020F16"/>
</g>
<defs>
<clipPath id="clip0_741_282">
<rect width="36" height="36" fill="white"/>
</clipPath>
</defs>
</svg>
