<svg width="20" height="21" viewBox="0 0 20 21" fill="none" xmlns="http://www.w3.org/2000/svg">
<path d="M16.875 2.0625H3.125C2.7106 2.0625 2.31317 2.22712 2.02015 2.52015C1.72712 2.81317 1.5625 3.2106 1.5625 3.625V17.375C1.5625 17.7894 1.72712 18.1868 2.02015 18.4799C2.31317 18.7729 2.7106 18.9375 3.125 18.9375H16.875C17.2894 18.9375 17.6868 18.7729 17.9799 18.4799C18.2729 18.1868 18.4375 17.7894 18.4375 17.375V3.625C18.4375 3.2106 18.2729 2.81317 17.9799 2.52015C17.6868 2.22712 17.2894 2.0625 16.875 2.0625ZM16.5625 17.0625H3.4375V3.9375H16.5625V17.0625ZM8.75 14.25V10.1875C8.75018 9.99267 8.81106 9.80274 8.92417 9.64411C9.03728 9.48547 9.197 9.36602 9.38113 9.30235C9.56526 9.23868 9.76466 9.23396 9.9516 9.28885C10.1385 9.34373 10.3037 9.45549 10.4242 9.60859C10.9004 9.359 11.4329 9.23648 11.9703 9.25287C12.5077 9.26926 13.0317 9.42402 13.4918 9.70217C13.9519 9.98032 14.3324 10.3725 14.5966 10.8407C14.8608 11.3089 14.9998 11.8374 15 12.375V14.25C15 14.4986 14.9012 14.7371 14.7254 14.9129C14.5496 15.0887 14.3111 15.1875 14.0625 15.1875C13.8139 15.1875 13.5754 15.0887 13.3996 14.9129C13.2238 14.7371 13.125 14.4986 13.125 14.25V12.375C13.125 12.0435 12.9933 11.7255 12.7589 11.4911C12.5245 11.2567 12.2065 11.125 11.875 11.125C11.5435 11.125 11.2255 11.2567 10.9911 11.4911C10.7567 11.7255 10.625 12.0435 10.625 12.375V14.25C10.625 14.4986 10.5262 14.7371 10.3504 14.9129C10.1746 15.0887 9.93614 15.1875 9.6875 15.1875C9.43886 15.1875 9.2004 15.0887 9.02459 14.9129C8.84877 14.7371 8.75 14.4986 8.75 14.25ZM7.5 10.1875V14.25C7.5 14.4986 7.40123 14.7371 7.22541 14.9129C7.0496 15.0887 6.81114 15.1875 6.5625 15.1875C6.31386 15.1875 6.0754 15.0887 5.89959 14.9129C5.72377 14.7371 5.625 14.4986 5.625 14.25V10.1875C5.625 9.93886 5.72377 9.7004 5.89959 9.52459C6.0754 9.34877 6.31386 9.25 6.5625 9.25C6.81114 9.25 7.0496 9.34877 7.22541 9.52459C7.40123 9.7004 7.5 9.93886 7.5 10.1875ZM5.3125 6.75C5.3125 6.50277 5.38581 6.2611 5.52316 6.05554C5.66051 5.84998 5.85574 5.68976 6.08415 5.59515C6.31255 5.50054 6.56389 5.47579 6.80636 5.52402C7.04884 5.57225 7.27157 5.6913 7.44638 5.86612C7.6212 6.04093 7.74025 6.26366 7.78848 6.50614C7.83671 6.74861 7.81196 6.99995 7.71735 7.22835C7.62274 7.45676 7.46252 7.65199 7.25696 7.78934C7.0514 7.92669 6.80973 8 6.5625 8C6.23098 8 5.91304 7.8683 5.67862 7.63388C5.4442 7.39946 5.3125 7.08152 5.3125 6.75Z" fill="#777777"/>
</svg>
