<svg width="16" height="16" viewBox="0 0 16 16" fill="none" xmlns="http://www.w3.org/2000/svg">
<path d="M7.33337 1.33334C10.6454 1.33334 13.3334 4.02134 13.3334 7.33334C13.3334 10.6453 10.6454 13.3333 7.33337 13.3333C4.02137 13.3333 1.33337 10.6453 1.33337 7.33334C1.33337 4.02134 4.02137 1.33334 7.33337 1.33334ZM7.33337 12C9.91137 12 12 9.91134 12 7.33334C12 4.75534 9.91137 2.66668 7.33337 2.66668C4.75537 2.66668 2.66671 4.75534 2.66671 7.33334C2.66671 9.91134 4.75537 12 7.33337 12ZM12.99 12.0473L14.876 13.9327L13.9327 14.876L12.0474 12.99L12.99 12.0473Z" fill="#050315" fill-opacity="0.5"/>
</svg>
