<svg width="20" height="21" viewBox="0 0 20 21" fill="none" xmlns="http://www.w3.org/2000/svg">
<path d="M6.50002 2.16675H13.5C16.1667 2.16675 18.3334 4.33342 18.3334 7.00008V14.0001C18.3334 15.282 17.8241 16.5113 16.9177 17.4178C16.0113 18.3242 14.7819 18.8334 13.5 18.8334H6.50002C3.83335 18.8334 1.66669 16.6667 1.66669 14.0001V7.00008C1.66669 5.7182 2.17591 4.48882 3.08234 3.5824C3.98876 2.67597 5.21814 2.16675 6.50002 2.16675ZM6.33335 3.83341C5.5377 3.83341 4.77464 4.14949 4.21203 4.71209C3.64942 5.2747 3.33335 6.03777 3.33335 6.83342V14.1667C3.33335 15.8251 4.67502 17.1667 6.33335 17.1667H13.6667C14.4623 17.1667 15.2254 16.8507 15.788 16.2881C16.3506 15.7255 16.6667 14.9624 16.6667 14.1667V6.83342C16.6667 5.17508 15.325 3.83341 13.6667 3.83341H6.33335ZM14.375 5.08341C14.6513 5.08341 14.9162 5.19316 15.1116 5.38851C15.3069 5.58386 15.4167 5.84881 15.4167 6.12508C15.4167 6.40135 15.3069 6.6663 15.1116 6.86165C14.9162 7.057 14.6513 7.16675 14.375 7.16675C14.0988 7.16675 13.8338 7.057 13.6385 6.86165C13.4431 6.6663 13.3334 6.40135 13.3334 6.12508C13.3334 5.84881 13.4431 5.58386 13.6385 5.38851C13.8338 5.19316 14.0988 5.08341 14.375 5.08341ZM10 6.33342C11.1051 6.33342 12.1649 6.7724 12.9463 7.5538C13.7277 8.33521 14.1667 9.39501 14.1667 10.5001C14.1667 11.6052 13.7277 12.665 12.9463 13.4464C12.1649 14.2278 11.1051 14.6667 10 14.6667C8.89495 14.6667 7.83514 14.2278 7.05374 13.4464C6.27234 12.665 5.83335 11.6052 5.83335 10.5001C5.83335 9.39501 6.27234 8.33521 7.05374 7.5538C7.83514 6.7724 8.89495 6.33342 10 6.33342ZM10 8.00008C9.33698 8.00008 8.70109 8.26347 8.23225 8.73231C7.76341 9.20116 7.50002 9.83704 7.50002 10.5001C7.50002 11.1631 7.76341 11.799 8.23225 12.2678C8.70109 12.7367 9.33698 13.0001 10 13.0001C10.6631 13.0001 11.2989 12.7367 11.7678 12.2678C12.2366 11.799 12.5 11.1631 12.5 10.5001C12.5 9.83704 12.2366 9.20116 11.7678 8.73231C11.2989 8.26347 10.6631 8.00008 10 8.00008Z" fill="#777777"/>
</svg>
