<svg width="20" height="21" viewBox="0 0 20 21" fill="none" xmlns="http://www.w3.org/2000/svg">
<path d="M10.8333 16.1594C10.8333 15.8761 10.8667 15.6011 10.9083 15.3261H3.33332V6.99276L9.99999 11.1594L16.6667 6.99276V11.2344C17.2667 11.3344 17.825 11.5428 18.3333 11.8344V5.32609C18.3333 4.40942 17.5833 3.65942 16.6667 3.65942H3.33332C2.41666 3.65942 1.66666 4.40942 1.66666 5.32609V15.3261C1.66666 16.2428 2.41666 16.9928 3.33332 16.9928H10.9083C10.8667 16.7178 10.8333 16.4428 10.8333 16.1594ZM16.6667 5.32609L9.99999 9.49276L3.33332 5.32609H16.6667ZM16.6667 18.6594L15.5 17.5L17 16.1594L15.5 14.8262L16.6667 13.6594L19.1667 16.1594L16.6667 18.6594Z" fill="#777777"/>
</svg>
