<svg width="15" height="18" viewBox="0 0 15 18" fill="none" xmlns="http://www.w3.org/2000/svg">
<mask id="path-1-inside-1_1478_1119" fill="white">
<path fill-rule="evenodd" clip-rule="evenodd" d="M8.35795 0C9.26187 0 9.40883 1.24071 8.78834 1.89802C7.68332 3.06858 7 4.68479 7 6.46983C7 10.043 9.73804 12.9397 13.1156 12.9397C13.2166 12.9397 13.3172 12.9371 13.417 12.9319C14.3628 12.8834 15.3118 13.8434 14.717 14.5803C13.1841 16.4799 10.9039 17.6842 8.35795 17.6842C3.74198 17.6842 0 13.7255 0 8.84211C0 3.95875 3.74198 0 8.35795 0V0Z"/>
</mask>
<path d="M13.417 12.9319L13.3504 11.6337L13.417 12.9319ZM14.717 14.5803L13.7054 13.7639L14.717 14.5803ZM8.78834 1.89802L7.84301 1.00563L8.78834 1.89802ZM8.3 6.46983C8.3 5.0198 8.85424 3.722 9.73366 2.7904L7.84301 1.00563C6.51241 2.41516 5.7 4.34977 5.7 6.46983H8.3ZM13.1156 11.6397C10.524 11.6397 8.3 9.39499 8.3 6.46983H5.7C5.7 10.691 8.95206 14.2397 13.1156 14.2397V11.6397ZM13.3504 11.6337C13.2727 11.6376 13.1944 11.6397 13.1156 11.6397V14.2397C13.2389 14.2397 13.3616 14.2365 13.4837 14.2302L13.3504 11.6337ZM13.7054 13.7639C12.3987 15.383 10.4795 16.3842 8.35795 16.3842V18.9842C11.3284 18.9842 13.9694 17.5767 15.7287 15.3967L13.7054 13.7639ZM8.35795 16.3842C4.52795 16.3842 1.3 13.0774 1.3 8.84211H-1.3C-1.3 14.3735 2.95601 18.9842 8.35795 18.9842V16.3842ZM1.3 8.84211C1.3 4.60677 4.52795 1.3 8.35795 1.3V-1.3C2.95601 -1.3 -1.3 3.31072 -1.3 8.84211H1.3ZM13.4837 14.2302C13.4924 14.2298 13.5258 14.2315 13.574 14.253C13.6237 14.2751 13.6531 14.3023 13.6602 14.3105C13.6697 14.3215 13.6183 14.2687 13.6048 14.1399C13.5978 14.0724 13.6032 13.9965 13.626 13.921C13.6486 13.8457 13.6818 13.7931 13.7054 13.7639L15.7287 15.3967C16.0873 14.9524 16.2475 14.4142 16.1908 13.8702C16.1371 13.3556 15.9009 12.9276 15.6293 12.6126C15.105 12.0046 14.2525 11.5873 13.3504 11.6337L13.4837 14.2302ZM9.73366 2.7904C10.3419 2.14604 10.5668 1.24724 10.4233 0.467336C10.3491 0.063668 10.1624 -0.37829 9.79645 -0.731395C9.41195 -1.10239 8.90509 -1.3 8.35795 -1.3V1.3C8.32016 1.3 8.2583 1.29305 8.18464 1.26401C8.11057 1.23481 8.04437 1.19102 7.99114 1.13966C7.88757 1.03973 7.86833 0.949026 7.86625 0.937699C7.86376 0.924145 7.86808 0.938573 7.85954 0.968602C7.85167 0.996275 7.84131 1.00742 7.84301 1.00563L9.73366 2.7904Z" fill="#050315" fill-opacity="0.5" mask="url(#path-1-inside-1_1478_1119)"/>
</svg>
