<svg width="18" height="18" viewBox="0 0 18 18" fill="none" xmlns="http://www.w3.org/2000/svg">
<g clip-path="url(#clip0_1476_1111)">
<path d="M8.25 0V2.25H9.75V0H8.25ZM3.16699 2.10645L2.10645 3.16699L3.69727 4.75781L4.75781 3.69727L3.16699 2.10645ZM14.833 2.10645L13.2422 3.69727L14.3027 4.75781L15.8936 3.16699L14.833 2.10645ZM9 3.75C6.10939 3.75 3.75 6.10939 3.75 9C3.75 11.8906 6.10939 14.25 9 14.25C11.8906 14.25 14.25 11.8906 14.25 9C14.25 6.10939 11.8906 3.75 9 3.75ZM9 5.25C11.08 5.25 12.75 6.92005 12.75 9C12.75 11.08 11.08 12.75 9 12.75C6.92005 12.75 5.25 11.08 5.25 9C5.25 6.92005 6.92005 5.25 9 5.25ZM0 8.25V9.75H2.25V8.25H0ZM15.75 8.25V9.75H18V8.25H15.75ZM3.69727 13.2422L2.10645 14.833L3.16699 15.8936L4.75781 14.3027L3.69727 13.2422ZM14.3027 13.2422L13.2422 14.3027L14.833 15.8936L15.8936 14.833L14.3027 13.2422ZM8.25 15.75V18H9.75V15.75H8.25Z" fill="#050315" fill-opacity="0.5"/>
</g>
<defs>
<clipPath id="clip0_1476_1111">
<rect width="18" height="18" fill="white"/>
</clipPath>
</defs>
</svg>
