<svg width="42" height="42" viewBox="0 0 42 42" fill="none" xmlns="http://www.w3.org/2000/svg">
<g clip-path="url(#clip0_741_424)">
<path d="M0 42V0H42V42H0Z" fill="#039BE5"/>
<path d="M21.3239 33.125C20.9792 33.125 20.6837 33.0038 20.4375 32.7614C20.1913 32.5189 20.0701 32.2235 20.0739 31.875C20.0701 31.5341 20.1913 31.2424 20.4375 31C20.6837 30.7576 20.9792 30.6364 21.3239 30.6364C21.6572 30.6364 21.947 30.7576 22.1932 31C22.4432 31.2424 22.5701 31.5341 22.5739 31.875C22.5701 32.1061 22.5095 32.3163 22.392 32.5057C22.2784 32.6951 22.1269 32.8466 21.9375 32.9602C21.7519 33.0701 21.5473 33.125 21.3239 33.125ZM24.169 28.2955V27.3011C24.813 27.3011 25.2618 27.1705 25.5156 26.9091C25.7732 26.6439 25.902 26.214 25.902 25.6193V24.1705C25.902 23.5303 25.9815 23.0057 26.1406 22.5966C26.3035 22.1875 26.5402 21.8693 26.8509 21.642C27.1615 21.4148 27.5402 21.2576 27.9872 21.1705C28.4342 21.0795 28.9418 21.0341 29.5099 21.0341V22.6136C29.063 22.6136 28.7202 22.6761 28.4815 22.8011C28.2429 22.9223 28.0781 23.1098 27.9872 23.3636C27.9001 23.6174 27.8565 23.9413 27.8565 24.3352V26.1989C27.8565 26.4905 27.8073 26.7633 27.7088 27.017C27.6103 27.2708 27.4304 27.4943 27.169 27.6875C26.9077 27.8769 26.5346 28.0265 26.0497 28.1364C25.5687 28.2424 24.9418 28.2955 24.169 28.2955ZM29.5099 35.4716C28.9418 35.4716 28.4342 35.4261 27.9872 35.3352C27.5402 35.2481 27.1615 35.0909 26.8509 34.8636C26.5402 34.6364 26.3035 34.3182 26.1406 33.9091C25.9815 33.5 25.902 32.9754 25.902 32.3352V30.892C25.902 30.2973 25.7732 29.8693 25.5156 29.608C25.2618 29.3428 24.813 29.2102 24.169 29.2102V28.2159C24.9418 28.2159 25.5687 28.2708 26.0497 28.3807C26.5346 28.4867 26.9077 28.6364 27.169 28.8295C27.4304 29.0189 27.6103 29.2405 27.7088 29.4943C27.8073 29.7481 27.8565 30.0189 27.8565 30.3068V32.1705C27.8565 32.5644 27.9001 32.8883 27.9872 33.142C28.0781 33.3958 28.2429 33.5852 28.4815 33.7102C28.7202 33.8352 29.063 33.8977 29.5099 33.8977V35.4716ZM24.169 29.2102V27.3011H25.9702V29.2102H24.169ZM35.7045 28.2159V29.2102C35.0606 29.2102 34.6098 29.3428 34.3523 29.608C34.0985 29.8693 33.9716 30.2973 33.9716 30.892V32.3352C33.9716 32.9754 33.8902 33.5 33.7273 33.9091C33.5682 34.3182 33.3333 34.6364 33.0227 34.8636C32.7121 35.0909 32.3333 35.2481 31.8864 35.3352C31.4394 35.4261 30.9318 35.4716 30.3636 35.4716V33.8977C30.8106 33.8977 31.1534 33.8352 31.392 33.7102C31.6307 33.5852 31.7936 33.3958 31.8807 33.142C31.9716 32.8883 32.017 32.5644 32.017 32.1705V30.3068C32.017 30.0189 32.0663 29.7481 32.1648 29.4943C32.2633 29.2405 32.4432 29.0189 32.7045 28.8295C32.9659 28.6364 33.3371 28.4867 33.8182 28.3807C34.303 28.2708 34.9318 28.2159 35.7045 28.2159ZM30.3636 21.0341C30.9318 21.0341 31.4394 21.0795 31.8864 21.1705C32.3333 21.2576 32.7121 21.4148 33.0227 21.642C33.3333 21.8693 33.5682 22.1875 33.7273 22.5966C33.8902 23.0057 33.9716 23.5303 33.9716 24.1705V25.6193C33.9716 26.214 34.0985 26.6439 34.3523 26.9091C34.6098 27.1705 35.0606 27.3011 35.7045 27.3011V28.2955C34.9318 28.2955 34.303 28.2424 33.8182 28.1364C33.3371 28.0265 32.9659 27.8769 32.7045 27.6875C32.4432 27.4943 32.2633 27.2708 32.1648 27.017C32.0663 26.7633 32.017 26.4905 32.017 26.1989V24.3352C32.017 23.9413 31.9716 23.6174 31.8807 23.3636C31.7936 23.1098 31.6307 22.9223 31.392 22.8011C31.1534 22.6761 30.8106 22.6136 30.3636 22.6136V21.0341ZM35.7045 27.3011V29.2102H33.9034V27.3011H35.7045Z" fill="white"/>
</g>
<defs>
<clipPath id="clip0_741_424">
<rect width="42" height="42" fill="white"/>
</clipPath>
</defs>
</svg>
