<svg width="36" height="36" viewBox="0 0 36 36" fill="none" xmlns="http://www.w3.org/2000/svg">
<path d="M12.8095 33.7219C13.3214 33.5016 13.6799 32.9926 13.6799 32.4V28.512C13.6799 28.3702 13.6915 28.2226 13.7095 28.0728C13.6994 28.0757 13.69 28.0778 13.6799 28.08C13.6799 28.08 11.5199 28.08 11.0879 28.08C10.0079 28.08 9.07194 27.648 8.63994 26.784C8.13594 25.848 7.91994 24.264 6.62394 23.4C6.40794 23.256 6.55194 23.04 6.98394 23.04C7.41594 23.112 8.35194 23.688 8.92794 24.48C9.57594 25.272 10.2239 25.92 11.3759 25.92C13.1666 25.92 14.1263 25.83 14.7038 25.5204C15.3763 24.5203 16.3072 23.76 17.2799 23.76V23.742C13.199 23.611 10.5919 22.2545 9.37794 20.16C6.73914 20.1902 4.44162 20.4516 3.1305 20.669C3.08874 20.4336 3.05274 20.1967 3.02178 19.9584C4.31562 19.7453 6.50874 19.4926 9.03018 19.4443C8.94954 19.2456 8.8797 19.0418 8.82066 18.833C6.29274 18.7049 4.11114 18.805 2.92602 18.9029C2.91162 18.6638 2.89218 18.4255 2.8893 18.1836C4.07658 18.0864 6.19914 17.9892 8.66226 18.1037C8.60538 17.7437 8.56866 17.3758 8.56866 16.9927C8.56866 15.7687 9.00066 14.4727 9.79266 13.3927C9.43266 12.1687 8.92866 9.57672 9.93666 8.64072C11.8807 8.64072 13.2487 9.57672 13.8967 10.1527C15.1199 9.648 16.4879 9.36 17.9999 9.36C19.5119 9.36 20.8799 9.648 22.0319 10.152C22.6799 9.576 24.0479 8.64 25.9919 8.64C27.0719 9.648 26.4959 12.24 26.1359 13.392C26.9279 14.472 27.3599 15.696 27.2879 16.992C27.2879 17.3405 27.2555 17.6767 27.2087 18.0065C29.728 17.8826 31.9082 17.982 33.1156 18.0799C33.1142 18.3226 33.0919 18.5594 33.0789 18.7992C31.8758 18.6998 29.6409 18.5976 27.0604 18.7351C26.9963 18.977 26.9186 19.2125 26.8264 19.4407C29.3795 19.4738 31.6252 19.7208 32.981 19.9368C32.95 20.1758 32.914 20.4127 32.8723 20.6474C31.4956 20.4271 29.1491 20.1694 26.4794 20.1564C25.2806 22.2286 22.721 23.58 18.7199 23.7377V23.76C20.5919 23.76 22.3199 26.568 22.3199 28.512V32.4C22.3199 32.9926 22.6785 33.5016 23.1904 33.7219C29.7863 31.5389 34.5599 25.3181 34.5599 18C34.5599 8.86896 27.1317 1.44 17.9999 1.44C8.86818 1.44 1.43994 8.86896 1.43994 18C1.43994 25.3181 6.21354 31.5389 12.8095 33.7219Z" fill="black"/>
</svg>
