<svg width="42" height="42" viewBox="0 0 42 42" fill="none" xmlns="http://www.w3.org/2000/svg">
<g clip-path="url(#clip0_741_391)">
<path d="M0 42V0H42V42H0Z" fill="#F7DF1E"/>
<path d="M27.2771 31.2233C28.0517 32.4527 28.8936 33.6306 30.6769 33.6306C32.1747 33.6306 32.9606 32.9033 32.9606 31.897C32.9606 30.6928 32.1479 30.2652 30.5 29.5641L29.5966 29.1878C26.9894 28.1072 25.2553 26.7531 25.2553 23.893C25.2553 21.257 27.3207 19.2511 30.5481 19.2511C32.8464 19.2511 34.4976 20.0287 35.6887 22.0653L32.8744 23.823C32.2553 22.7423 31.5859 22.3169 30.5481 22.3169C29.4891 22.3169 28.8186 22.9698 28.8186 23.823C28.8186 24.8773 29.4902 25.3039 31.0407 25.9569L31.9441 26.3331C35.0171 27.6117 36.75 28.9177 36.75 31.8533C36.75 35.0164 34.1931 36.75 30.7608 36.75C27.4036 36.75 25.4971 35.1039 24.4358 33.0662L27.2771 31.2233ZM14.3069 31.313C14.8733 32.3039 15.7342 33.0662 16.9723 33.0662C18.1567 33.0662 18.8385 32.6091 18.8385 30.8317V19.25H22.5697V31.3917C22.5697 35.0744 20.3834 36.75 17.1906 36.75C14.3058 36.75 12.2236 34.8403 11.375 33.0662L14.3069 31.313Z" fill="#000001"/>
</g>
<defs>
<clipPath id="clip0_741_391">
<rect width="42" height="42" fill="white"/>
</clipPath>
</defs>
</svg>
