<svg width="42" height="42" viewBox="0 0 42 42" fill="none" xmlns="http://www.w3.org/2000/svg">
<path d="M5 21C5 30.941 13.059 39 23 39C32.941 39 41 30.941 41 21H23H5Z" fill="#DC4C2C"/>
<path d="M23 3V21H41C41 11.059 32.941 3 23 3Z" fill="#F7A278"/>
<path d="M23 3C13.059 3 5 11.059 5 21H23V3Z" fill="#C06346"/>
<path d="M21.319 31H4.681C3.753 31 3 30.247 3 29.319V12.681C3 11.753 3.753 11 4.681 11H21.319C22.247 11 23 11.753 23 12.681V29.319C23 30.247 22.247 31 21.319 31Z" fill="#9B341F"/>
<path d="M13.857 16H9V26H11.1037V22.479H13.4693C15.4191 22.479 17 20.958 17 19.082V19.024C17 17.354 15.5927 16 13.857 16ZM14.7893 19.346C14.7893 20.205 14.0648 20.902 13.172 20.902H11.1037V17.577H13.172C14.0648 17.577 14.7893 18.274 14.7893 19.133V19.346Z" fill="white"/>
</svg>
